<?xml version="1.0" encoding="UTF-8" standalone="no"?>
<!-- Created with Inkscape (http://www.inkscape.org/) -->

<svg
   xmlns:dc="http://purl.org/dc/elements/1.1/"
   xmlns:cc="http://creativecommons.org/ns#"
   xmlns:rdf="http://www.w3.org/1999/02/22-rdf-syntax-ns#"
   xmlns:svg="http://www.w3.org/2000/svg"
   xmlns="http://www.w3.org/2000/svg"
   xmlns:sodipodi="http://sodipodi.sourceforge.net/DTD/sodipodi-0.dtd"
   xmlns:inkscape="http://www.inkscape.org/namespaces/inkscape"
   width="210mm"
   height="297mm"
   id="svg2"
   version="1.1"
   inkscape:version="0.48.4 r9939"
   sodipodi:docname="Neues Dokument 1">
  <defs
     id="defs4" />
  <sodipodi:namedview
     id="base"
     pagecolor="#ffffff"
     bordercolor="#666666"
     borderopacity="1.0"
     inkscape:pageopacity="0.0"
     inkscape:pageshadow="2"
     inkscape:zoom="0.98994949"
     inkscape:cx="291.93526"
     inkscape:cy="386.07003"
     inkscape:document-units="px"
     inkscape:current-layer="layer1"
     showgrid="false"
     inkscape:window-width="1600"
     inkscape:window-height="1138"
     inkscape:window-x="-8"
     inkscape:window-y="-8"
     inkscape:window-maximized="1" />
  <metadata
     id="metadata7">
    <rdf:RDF>
      <cc:Work
         rdf:about="">
        <dc:format>image/svg+xml</dc:format>
        <dc:type
           rdf:resource="http://purl.org/dc/dcmitype/StillImage" />
        <dc:title></dc:title>
      </cc:Work>
    </rdf:RDF>
  </metadata>
  <g
     inkscape:label="Ebene 1"
     inkscape:groupmode="layer"
     id="layer1">
    <g
       id="g2996"
       transform="translate(-688.57143,-14.285714)">
      <path
         style="fill:#000000;fill-opacity:1"
         d="m 234.00002,480.93362 0,-215.5 226,0 226,0 0,215.5 0,215.5 -226,0 -226,0 z m 225.53466,172.40586 c 16.88482,-7.6878 29.88745,-20.81013 33.96534,-35.30397 0.78164,-3.06335 0,-85.26549 0,-85.26549 0,-80.51825 -0.0994,-85.3649 -1.78553,-87.05095 -1.62263,-1.62256 -4.53754,-1.80951 -31.95001,-2.04916 -30.03491,-0.3568 -57.71999,-1.0819 -75.40404,25.4197 -1.81588,2.8358 -4.55234,8.6858 -6.08101,13 -5.06297,14.28866 -3.05756,31.20351 5.26789,44.43248 4.32042,6.86505 14.30143,16.0886 21.4527,19.82464 7.93031,4.14304 12.70779,5.06942 29.6542,5.75012 12.5606,0.50454 13.25298,0.42959 15.34334,-1.66077 1.99581,-1.99581 2.15883,-3.00659 1.84581,-11.44445 -0.45331,-12.21945 -0.7637,-12.55267 -11.71579,-12.57782 -21.88726,-0.0503 -29.83339,-3.62054 -36.26993,-16.29652 -2.4125,-4.75111 -2.95738,-7.08036 -2.9752,-12.7182 -0.0185,-5.84053 0.44843,-7.75873 3.03617,-12.47393 8.95974,-18.20063 29.60489,-16.12722 40.53474,-16.27275 12.32213,-0.15717 22.65656,0.12558 23.42937,0.64104 1.15683,0.77159 1.35826,12.04032 1.2331,68.98379 -0.0847,38.55214 -0.56547,70.25442 -1.10877,73.11926 -1.25692,6.62773 -6.01008,12.87739 -13.25704,17.43095 -6.30824,3.96372 -6.00067,3.1076 -5.78632,16.10617 0.095,5.76342 0.48132,7.30915 2.18666,8.75 2.4868,2.10112 2.47692,1.26688 8.38432,-0.34414 z M 593.19516,548.64421 c 11.60749,-4.14759 21.50575,-12.82176 28.31828,-23.21059 4.25126,-6.70817 8.48658,-20.25699 8.48658,-27.14862 1.03196,-52.37456 -64.39767,-54.479 -74.6003,-54.08607 -2.39292,1.5978 -3.3997,5.45173 -3.3997,13.01396 0,11.27649 0.52854,11.64956 16.84555,11.89053 9.24403,0.13651 13.46296,0.60879 15.65445,1.75238 7.59466,2.78432 13.88534,8.97265 17.43648,15.76661 4.17206,8.34904 4.15656,14.3044 -0.0592,22.74087 -5.80019,11.60719 -11.55409,15.48005 -25.59702,17.22892 -8.59817,1.07079 -38.27887,0.57836 -40.29642,-0.66856 -0.63345,-0.3915 -1.79634,-33.2126 -0.96152,-91.73706 1.23387,-86.49962 -0.31469,-91.49344 -0.7763,-91.58272 -4.64774,-0.89897 -19.53617,-0.67171 -20.54966,0.0798 -1.56155,1.15781 -1.6883,8.74334 -1.71859,102.84664 -0.018,55.87815 0.24298,102.31504 0.57991,103.19307 0.33693,0.87804 1.36179,1.81777 2.27746,2.08829 0.91567,0.27052 17.86486,0.3909 37.66486,0.26752 34.81845,-0.21697 36.02783,-1.30704 40.69514,-2.43493 z M 336.75745,447.89305 c 1.36422,-1.36207 0.79516,-5.46021 1.05971,-20.221 0.18748,-10.46126 0.74855,-18.21512 1.37244,-18.96686 0.77923,-0.93892 5.5724,-1.27157 18.32208,-1.27157 12.40299,0 18.96625,0.88633 21.40691,-0.37561 1.34933,-0.69767 1.17136,-3.86387 0.91623,-11.02395 0.26407,-7.92758 -0.56917,-11.39401 -1.9595,-12.10765 -2.43635,-1.25054 -7.82777,-0.39129 -18.70722,-0.49279 -13.45794,0.13512 -18.24047,-0.33245 -19.65454,-1.36644 -1.71363,-1.25304 -1.84768,-2.74061 -1.6151,-17.92368 0.25025,-16.33707 -0.29071,-19.93645 -3.29814,-21.94457 -0.60517,-0.40407 -4.78728,-0.74158 -9.2936,-0.75 -11.48964,-0.0215 -11.3067,-0.38714 -11.3067,22.60021 0,15.92155 -0.20307,18.24843 -1.64069,18.80009 -0.90237,0.34628 -9.7414,0.58702 -19.64228,0.53499 -22.09616,-0.11612 -21.29728,-0.56744 -20.92252,11.81991 0.37681,12.45507 -0.0241,12.22949 21.73449,12.22949 9.51908,0 18.01923,0.27314 18.88921,0.60699 1.35881,0.52142 1.58179,3.06813 1.58179,18.06574 0,18.21797 0.85741,20.98106 2.70823,22.29437 3.18125,2.25737 18.18711,1.35149 20.0492,-0.50767 z"
         id="path3012"
         inkscape:connector-curvature="0"
         sodipodi:nodetypes="cccccccccccssccsssssssssccsssssscscccssccsssssssssscssssscscsscsscssssssss" />
    </g>
    <path
       style="fill:#ffffff"
       d="m -220.59207,400.18244 c 8.03912,-0.75761 15.69944,-0.75761 23.73856,0 0.75761,7.49195 0.75761,15.36271 0,22.85465 -7.91285,1.01015 -15.82571,0.75761 -23.73856,0 -0.63135,-7.61821 -0.75761,-15.3627 0,-22.85465 z"
       id="rect3016"
       inkscape:connector-curvature="0"
       sodipodi:nodetypes="ccccc" />
  </g>
</svg>
